<svg width="208" height="208" viewBox="0 0 208 208" fill="none" xmlns="http://www.w3.org/2000/svg">
<circle cx="104" cy="104" r="104" fill="black"/>
<path d="M119.168 160.64C112.512 160.64 106.197 159.531 100.224 157.312C94.336 155.008 89.7707 152.064 86.528 148.48L89.472 143.616C92.544 146.773 96.7253 149.461 102.016 151.68C107.392 153.813 113.067 154.88 119.04 154.88C125.013 154.88 129.877 154.112 133.632 152.576C137.472 150.955 140.288 148.821 142.08 146.176C143.957 143.531 144.896 140.587 144.896 137.344C144.896 133.504 143.872 130.432 141.824 128.128C139.776 125.824 137.088 123.989 133.76 122.624C130.432 121.259 126.805 120.107 122.88 119.168C118.955 118.229 114.987 117.248 110.976 116.224C106.965 115.115 103.296 113.707 99.968 112C96.64 110.293 93.952 107.989 91.904 105.088C89.9413 102.101 88.96 98.2613 88.96 93.568C88.96 89.3013 90.0693 85.376 92.288 81.792C94.5067 78.208 97.9627 75.3067 102.656 73.088C107.349 70.8693 113.365 69.76 120.704 69.76C125.653 69.76 130.517 70.4853 135.296 71.936C140.16 73.3867 144.299 75.3493 147.712 77.824L145.28 83.072C141.525 80.512 137.472 78.6347 133.12 77.44C128.853 76.16 124.715 75.52 120.704 75.52C114.987 75.52 110.251 76.3307 106.496 77.952C102.741 79.5733 99.968 81.7493 98.176 84.48C96.384 87.1253 95.488 90.112 95.488 93.44C95.488 97.28 96.4693 100.352 98.432 102.656C100.48 104.96 103.168 106.795 106.496 108.16C109.824 109.525 113.493 110.677 117.504 111.616C121.515 112.555 125.483 113.579 129.408 114.688C133.333 115.712 136.96 117.077 140.288 118.784C143.616 120.491 146.304 122.795 148.352 125.696C150.4 128.597 151.424 132.352 151.424 136.96C151.424 141.141 150.272 145.067 147.968 148.736C145.664 152.32 142.123 155.221 137.344 157.44C132.651 159.573 126.592 160.64 119.168 160.64Z" fill="white"/>
</svg>
